<svg xmlns="http://www.w3.org/2000/svg" viewBox="0 0 300 300">
  <path fill="#A1612B9B"
        d="M115 0C51.6 0 0 51.6 0 115s51.6 115 115 115 115-51.6 115-115S178.4 0 115 0zm0 209.5c-52.2 0-94.5-42.3-94.5-94.5S62.8 20.5 115 20.5c52.2.1 94.4 42.3 94.5 94.5 0 52.2-42.3 94.5-94.5 94.5z"/>
  <circle fill="#A1612B" cx="147.1" cy="69.1" r="14.1"/>
  <path fill="#A1612B9B"
        d="M83 151.6c15.4 0 21.9-9.2 21.9-23.9 0-6.5-5.2-12-5.2-19-.2-8.7 6.8-15.9 15.5-16h.6c9.8 0 15.9 8.3 15.9 16 0 7.4-5.2 12.3-5.2 19.1 0 14.7 6 23.8 21.8 23.8 12.8 0 19-6.9 24.7-15.7 1.9-2.9 5-5.2 8.4-5.2 5.1 0 8 3.7 8 7.7 0 9.6-16.5 31.8-41.4 31.8-8.6 0-23.3-1.8-32.2-15.7-8.2 12.6-20.7 15.7-32.1 15.7-26 0-41.6-23-41.6-31.8 0-4.2 3.4-7.7 7.6-7.7h.2c3.5.2 6.8 2.1 8.6 5.2 5.5 9 12.3 15.7 24.5 15.7z"/>
</svg>
